<svg xmlns="http://www.w3.org/2000/svg" viewBox="0 0 1200 800" role="img" aria-label="Excellent Leaders College illustration">
    <defs>
      <linearGradient id="sky" x1="0" y1="0" x2="1" y2="1"><stop stop-color="#e9f7f2"/><stop offset="1" stop-color="#dcecff"/></linearGradient>
      <linearGradient id="navy" x1="0" y1="0" x2="1" y2="1"><stop stop-color="#003366"/><stop offset="1" stop-color="#001f3f"/></linearGradient>
      <linearGradient id="green" x1="0" y1="0" x2="1" y2="1"><stop stop-color="#00b487"/><stop offset="1" stop-color="#007a5e"/></linearGradient>
      <linearGradient id="gold" x1="0" y1="0" x2="1" y2="1"><stop stop-color="#efd36c"/><stop offset="1" stop-color="#c9af37"/></linearGradient>
      <filter id="shadow" x="-30%" y="-30%" width="160%" height="160%"><feDropShadow dx="0" dy="18" stdDeviation="20" flood-color="#003366" flood-opacity=".16"/></filter>
      <pattern id="dots" width="24" height="24" patternUnits="userSpaceOnUse"><circle cx="2" cy="2" r="2" fill="#003366" opacity=".08"/></pattern>
    </defs>
    
<rect width="1200" height="800" rx="44" fill="#f6faf9"/>
<rect width="1200" height="800" rx="44" fill="url(#dots)"/>
<circle cx="170" cy="150" r="100" fill="#c9af37" opacity=".25"/>
<circle cx="1030" cy="670" r="150" fill="#009f79" opacity=".14"/>
<g filter="url(#shadow)" transform="translate(180 135)">
 <rect width="840" height="530" rx="30" fill="#fff"/>
 <rect x="55" y="55" width="730" height="280" rx="20" fill="url(#navy)"/>
 <path d="M105 280c90-100 180-92 266 0s170 85 270-20v75H105z" fill="#009f79" opacity=".9"/>
 <circle cx="620" cy="125" r="44" fill="#c9af37"/>
 <g transform="translate(100 370)">
  <circle cx="60" cy="45" r="34" fill="#70462f"/><path d="M10 150c8-64 27-86 50-86s43 22 50 86z" fill="#c8102e"/>
  <rect x="190" y="15" width="400" height="28" rx="14" fill="#d7e5ec"/>
  <rect x="190" y="67" width="310" height="24" rx="12" fill="#e8eef2"/>
  <rect x="190" y="113" width="355" height="24" rx="12" fill="#e8eef2"/>
 </g>
</g>
<g transform="translate(80 560)"><rect width="225" height="130" rx="22" fill="#fff" filter="url(#shadow)"/><circle cx="55" cy="50" r="25" fill="#009f79"/><path d="M44 50l8 8 16-19" fill="none" stroke="#fff" stroke-width="7" stroke-linecap="round" stroke-linejoin="round"/><text x="100" y="51" font-family="Arial" font-size="22" font-weight="700" fill="#003366">Learning</text><text x="100" y="82" font-family="Arial" font-size="16" fill="#526273">with purpose</text></g>

    </svg>