<svg xmlns="http://www.w3.org/2000/svg" viewBox="0 0 1200 800" role="img" aria-label="Excellent Leaders College illustration">
    <defs>
      <linearGradient id="sky" x1="0" y1="0" x2="1" y2="1"><stop stop-color="#e9f7f2"/><stop offset="1" stop-color="#dcecff"/></linearGradient>
      <linearGradient id="navy" x1="0" y1="0" x2="1" y2="1"><stop stop-color="#003366"/><stop offset="1" stop-color="#001f3f"/></linearGradient>
      <linearGradient id="green" x1="0" y1="0" x2="1" y2="1"><stop stop-color="#00b487"/><stop offset="1" stop-color="#007a5e"/></linearGradient>
      <linearGradient id="gold" x1="0" y1="0" x2="1" y2="1"><stop stop-color="#efd36c"/><stop offset="1" stop-color="#c9af37"/></linearGradient>
      <filter id="shadow" x="-30%" y="-30%" width="160%" height="160%"><feDropShadow dx="0" dy="18" stdDeviation="20" flood-color="#003366" flood-opacity=".16"/></filter>
      <pattern id="dots" width="24" height="24" patternUnits="userSpaceOnUse"><circle cx="2" cy="2" r="2" fill="#003366" opacity=".08"/></pattern>
    </defs>
    
<rect width="1200" height="800" fill="url(#navy)"/><circle cx="1040" cy="120" r="95" fill="#009f79" opacity=".45"/><circle cx="170" cy="670" r="140" fill="#c9af37" opacity=".3"/><g filter="url(#shadow)" transform="translate(210 115)"><rect width="780" height="570" rx="34" fill="#fff"/><path d="M310 90h160v45l-35 55v215a90 90 0 01-180 0V190l-35-55V90z" fill="#e8f6ff" stroke="#003366" stroke-width="14"/><path d="M255 380h180v25a90 90 0 01-180 0z" fill="#009f79" opacity=".8"/><circle cx="320" cy="340" r="18" fill="#c9af37"/><circle cx="392" cy="300" r="12" fill="#c8102e"/><circle cx="345" cy="255" r="10" fill="#009f79"/><path d="M540 160l95 245h-190z" fill="#e8f6ff" stroke="#003366" stroke-width="14"/><path d="M475 350h130l30 55H445z" fill="#c9af37" opacity=".85"/><rect x="95" y="470" width="590" height="32" rx="16" fill="#dce8ee"/></g>

    </svg>