<svg xmlns="http://www.w3.org/2000/svg" viewBox="0 0 1200 800" role="img" aria-label="Excellent Leaders College illustration">
    <defs>
      <linearGradient id="sky" x1="0" y1="0" x2="1" y2="1"><stop stop-color="#e9f7f2"/><stop offset="1" stop-color="#dcecff"/></linearGradient>
      <linearGradient id="navy" x1="0" y1="0" x2="1" y2="1"><stop stop-color="#003366"/><stop offset="1" stop-color="#001f3f"/></linearGradient>
      <linearGradient id="green" x1="0" y1="0" x2="1" y2="1"><stop stop-color="#00b487"/><stop offset="1" stop-color="#007a5e"/></linearGradient>
      <linearGradient id="gold" x1="0" y1="0" x2="1" y2="1"><stop stop-color="#efd36c"/><stop offset="1" stop-color="#c9af37"/></linearGradient>
      <filter id="shadow" x="-30%" y="-30%" width="160%" height="160%"><feDropShadow dx="0" dy="18" stdDeviation="20" flood-color="#003366" flood-opacity=".16"/></filter>
      <pattern id="dots" width="24" height="24" patternUnits="userSpaceOnUse"><circle cx="2" cy="2" r="2" fill="#003366" opacity=".08"/></pattern>
    </defs>
    
<rect width="1200" height="800" fill="#f8f3e5"/><rect x="110" y="80" width="980" height="640" rx="36" fill="#fff" filter="url(#shadow)"/><g transform="translate(170 145)"><rect width="860" height="410" rx="18" fill="#003366"/><g fill="#c9af37"><rect x="55" y="40" width="28" height="315"/><rect x="250" y="40" width="28" height="315"/><rect x="445" y="40" width="28" height="315"/><rect x="640" y="40" width="28" height="315"/><rect x="790" y="40" width="28" height="315"/></g><g fill="#fff"><rect x="85" y="95" width="150" height="22"/><rect x="85" y="145" width="130" height="22"/><rect x="85" y="195" width="160" height="22"/><rect x="280" y="80" width="150" height="22"/><rect x="280" y="132" width="120" height="22"/><rect x="280" y="184" width="155" height="22"/><rect x="475" y="100" width="150" height="22"/><rect x="475" y="152" width="130" height="22"/><rect x="475" y="204" width="155" height="22"/><rect x="670" y="90" width="110" height="22"/><rect x="670" y="142" width="120" height="22"/><rect x="670" y="194" width="100" height="22"/></g></g><path d="M380 625q220-140 440 0v65H380z" fill="#009f79"/><path d="M600 505v170" stroke="#fff" stroke-width="10"/><path d="M400 610q100-105 200-70v135q-100-50-200-15zM800 610q-100-105-200-70v135q100-50 200-15z" fill="#fff"/>
    </svg>