<svg xmlns="http://www.w3.org/2000/svg" viewBox="0 0 1200 800" role="img" aria-label="Excellent Leaders Secondary School illustration">
    <defs>
      <linearGradient id="sky" x1="0" y1="0" x2="1" y2="1"><stop stop-color="#e9f7f2"/><stop offset="1" stop-color="#dcecff"/></linearGradient>
      <linearGradient id="navy" x1="0" y1="0" x2="1" y2="1"><stop stop-color="#003366"/><stop offset="1" stop-color="#001f3f"/></linearGradient>
      <linearGradient id="green" x1="0" y1="0" x2="1" y2="1"><stop stop-color="#00b487"/><stop offset="1" stop-color="#007a5e"/></linearGradient>
      <linearGradient id="gold" x1="0" y1="0" x2="1" y2="1"><stop stop-color="#efd36c"/><stop offset="1" stop-color="#c9af37"/></linearGradient>
      <filter id="shadow" x="-30%" y="-30%" width="160%" height="160%"><feDropShadow dx="0" dy="18" stdDeviation="20" flood-color="#003366" flood-opacity=".16"/></filter>
      <pattern id="dots" width="24" height="24" patternUnits="userSpaceOnUse"><circle cx="2" cy="2" r="2" fill="#003366" opacity=".08"/></pattern>
    </defs>
    
<rect width="1200" height="800" fill="#dff4e9"/><path d="M0 610c260-120 480-65 650 15s330 80 550-20v195H0z" fill="#009f79"/><rect x="130" y="180" width="940" height="430" rx="30" fill="#fff" filter="url(#shadow)"/><rect x="190" y="235" width="820" height="315" rx="14" fill="#73c98f"/><path d="M600 235v315M190 392h820" stroke="#fff" stroke-width="9" opacity=".9"/><circle cx="600" cy="392" r="72" fill="none" stroke="#fff" stroke-width="9"/><g transform="translate(335 240)"><circle cx="60" cy="55" r="35" fill="#6b402c"/><path d="M8 210c7-92 30-124 52-124s48 32 55 124z" fill="#c8102e"/><path d="M36 95l24 32 26-32" fill="#fff"/><path d="M25 205l-30 90M95 205l35 90" stroke="#003366" stroke-width="20" stroke-linecap="round"/></g><g transform="translate(720 255)"><circle cx="60" cy="55" r="35" fill="#8d5a3b"/><path d="M8 210c7-92 30-124 52-124s48 32 55 124z" fill="#003366"/><path d="M36 95l24 32 26-32" fill="#fff"/><path d="M25 205l-30 90M95 205l35 90" stroke="#c9af37" stroke-width="20" stroke-linecap="round"/></g><circle cx="610" cy="480" r="42" fill="#fff" stroke="#003366" stroke-width="8"/>

    </svg>
