<svg xmlns="http://www.w3.org/2000/svg" viewBox="0 0 1200 800" role="img" aria-label="Excellent Leaders College illustration">
    <defs>
      <linearGradient id="sky" x1="0" y1="0" x2="1" y2="1"><stop stop-color="#e9f7f2"/><stop offset="1" stop-color="#dcecff"/></linearGradient>
      <linearGradient id="navy" x1="0" y1="0" x2="1" y2="1"><stop stop-color="#003366"/><stop offset="1" stop-color="#001f3f"/></linearGradient>
      <linearGradient id="green" x1="0" y1="0" x2="1" y2="1"><stop stop-color="#00b487"/><stop offset="1" stop-color="#007a5e"/></linearGradient>
      <linearGradient id="gold" x1="0" y1="0" x2="1" y2="1"><stop stop-color="#efd36c"/><stop offset="1" stop-color="#c9af37"/></linearGradient>
      <filter id="shadow" x="-30%" y="-30%" width="160%" height="160%"><feDropShadow dx="0" dy="18" stdDeviation="20" flood-color="#003366" flood-opacity=".16"/></filter>
      <pattern id="dots" width="24" height="24" patternUnits="userSpaceOnUse"><circle cx="2" cy="2" r="2" fill="#003366" opacity=".08"/></pattern>
    </defs>
    
<rect width="1200" height="800" fill="#f2f6fb"/><rect x="120" y="90" width="960" height="620" rx="36" fill="#fff" filter="url(#shadow)"/><rect x="190" y="150" width="820" height="260" rx="20" fill="url(#navy)"/><path d="M260 340c100-100 220-100 320 0s210 85 350-20v90H260z" fill="#009f79"/><g transform="translate(480 210)"><circle cx="120" cy="65" r="44" fill="#805035"/><path d="M55 260c10-126 45-170 65-170s58 44 68 170z" fill="#c9af37"/><path d="M92 108l28 38 31-38" fill="#fff"/><path d="M70 175l-120 30M170 175l120 30" stroke="#c9af37" stroke-width="28" stroke-linecap="round"/></g><g transform="translate(200 500)"><g fill="#003366"><circle cx="80" cy="35" r="28"/><circle cx="240" cy="35" r="28"/><circle cx="400" cy="35" r="28"/><circle cx="560" cy="35" r="28"/><circle cx="720" cy="35" r="28"/></g><g fill="#009f79"><path d="M35 150q5-85 45-85t45 85z"/><path d="M195 150q5-85 45-85t45 85z"/><path d="M355 150q5-85 45-85t45 85z"/><path d="M515 150q5-85 45-85t45 85z"/><path d="M675 150q5-85 45-85t45 85z"/></g></g>

    </svg>